<svg width="668" height="357" viewBox="0 0 668 357" fill="none" xmlns="http://www.w3.org/2000/svg">
<g filter="url(#filter0_d_606_9)">
<path d="M26.4079 147.14C25.1119 148.57 25.2218 150.786 26.6534 152.09C28.085 153.393 30.2962 153.29 31.5923 151.86L26.4079 147.14ZM426 127.495L429.283 126.299L426 127.495ZM346.613 127.495L343.473 125.943L346.613 127.495ZM130.5 96L129.222 99.257L130.5 96ZM356.804 228.148L359.029 230.858L356.804 228.148ZM192.5 184.5L195.76 183.245L192.5 184.5ZM472.669 261.289L472.612 257.786L472.669 261.289ZM266.5 249.5L267.24 246.078L266.5 249.5ZM29.0001 149.5C31.5923 151.86 31.5922 151.86 31.5921 151.86C31.592 151.86 31.592 151.86 31.592 151.86C31.5919 151.86 31.5919 151.86 31.592 151.86C31.5922 151.86 31.5926 151.86 31.5932 151.859C31.5945 151.857 31.5967 151.855 31.5999 151.851C31.6063 151.844 31.6165 151.833 31.6305 151.818C31.6585 151.787 31.7016 151.74 31.7595 151.677C31.8754 151.551 32.0503 151.361 32.2817 151.113C32.7445 150.617 33.4329 149.886 34.3255 148.959C36.111 147.104 38.7115 144.465 41.9553 141.349L37.1065 136.284C33.7886 139.471 31.1236 142.175 29.2842 144.086C28.3643 145.042 27.6504 145.8 27.1639 146.321C26.9207 146.582 26.7343 146.784 26.6074 146.922C26.5439 146.991 26.4954 147.044 26.462 147.081C26.4453 147.099 26.4325 147.113 26.4234 147.123C26.4189 147.128 26.4154 147.132 26.4128 147.135C26.4115 147.136 26.4104 147.138 26.4096 147.138C26.4092 147.139 26.4089 147.139 26.4086 147.14C26.4085 147.14 26.4083 147.14 26.4082 147.14C26.4081 147.14 26.4079 147.14 29.0001 149.5ZM64.3498 121.942C72.0124 116.025 80.4149 110.308 88.9394 105.862L85.6943 99.6444C76.6945 104.339 67.9396 110.31 60.0695 116.387L64.3498 121.942ZM115.957 97.3037C120.692 97.0384 125.138 97.6371 129.222 99.257L131.778 92.7431C126.597 90.6886 121.113 89.9958 115.544 90.3078L115.957 97.3037ZM129.222 99.257C133.713 101.038 137.799 103.012 141.526 105.144L144.978 99.0609C140.952 96.7589 136.565 94.6415 131.778 92.7431L129.222 99.257ZM162.375 122.238C168.634 129.54 173.058 137.483 176.417 145.431L182.855 142.717C179.288 134.276 174.516 125.664 167.674 117.683L162.375 122.238ZM184.966 171.907C186.344 176.94 187.675 181.706 189.24 185.756L195.76 183.245C194.346 179.585 193.105 175.168 191.71 170.074L184.966 171.907ZM189.24 185.756C190.476 188.955 192.792 193.007 195.825 197.441L201.589 193.493C198.679 189.238 196.71 185.704 195.76 183.245L189.24 185.756ZM212.141 217.405C217.829 223.419 224.265 229.442 231.106 234.813L235.409 229.304C228.88 224.178 222.698 218.396 217.21 212.594L212.141 217.405ZM253.159 248.612C257.321 250.507 261.544 251.993 265.76 252.922L267.24 246.078C263.588 245.274 259.835 243.965 256.035 242.235L253.159 248.612ZM265.76 252.922C270.031 253.863 274.106 254.608 277.999 255.173L278.981 248.239C275.265 247.699 271.356 246.985 267.24 246.078L265.76 252.922ZM302.963 256.399C312.571 255.806 320.681 253.888 327.684 251.198L325.163 244.655C318.827 247.088 311.415 248.855 302.51 249.405L302.963 256.399ZM349.518 238.596C352.988 235.927 356.162 233.219 359.029 230.858L354.579 225.438C351.59 227.899 348.596 230.457 345.248 233.033L349.518 238.596ZM359.029 230.858C362.493 228.007 366.924 224.436 371.479 220.677L367.022 215.263C362.332 219.133 358.261 222.408 354.579 225.438L359.029 230.858ZM395.828 199.183C403.728 191.542 411.38 183.231 417.547 174.606L411.858 170.513C406.022 178.674 398.689 186.661 390.962 194.135L395.828 199.183ZM431.143 143.848C431.885 137.964 431.391 132.063 429.283 126.299L422.717 128.691C424.4 133.29 424.822 138.049 424.205 142.947L431.143 143.848ZM429.283 126.299C427.684 121.93 425.229 118.096 422.16 114.83L417.075 119.623C419.539 122.246 421.468 125.275 422.717 128.691L429.283 126.299ZM399.315 102.377C391.046 100.496 382.086 100.506 373.646 102.571L375.327 109.378C382.695 107.575 390.557 107.565 397.789 109.209L399.315 102.377ZM351.053 115.155C348.065 118.233 345.491 121.825 343.473 125.943L349.752 129.048C351.44 125.604 353.585 122.612 356.073 120.05L351.053 115.155ZM343.473 125.943C340.747 131.505 339.771 137.59 340.17 143.913L347.149 143.494C346.814 138.188 347.644 133.351 349.752 129.048L343.473 125.943ZM351.904 176.641C357.393 185.769 364.494 194.954 372.545 203.751L377.693 199.024C369.882 190.49 363.086 181.678 357.891 173.039L351.904 176.641ZM397.098 227.066C406.042 234.497 415.369 241.244 424.531 246.906L428.188 240.946C419.326 235.469 410.264 228.917 401.552 221.678L397.098 227.066ZM455.311 261.752C461.534 263.743 467.443 264.862 472.727 264.792L472.612 257.786C468.324 257.842 463.198 256.927 457.418 255.078L455.311 261.752ZM472.727 264.792C478.987 264.71 485.656 263.762 492.795 262.196L491.278 255.351C484.429 256.854 478.253 257.712 472.612 257.786L472.727 264.792ZM530.635 250.973C536.489 249.002 542.693 246.878 549.165 244.69L546.91 238.051C540.385 240.257 534.256 242.355 528.388 244.33L530.635 250.973ZM549.165 244.69C554.384 242.926 559.286 240.902 563.841 238.745L560.836 232.408C556.504 234.46 551.852 236.38 546.91 238.051L549.165 244.69ZM590.759 222.262C594.604 219.309 597.59 216.714 599.625 214.846C600.642 213.911 601.423 213.158 601.955 212.632C602.222 212.369 602.426 212.163 602.566 212.02C602.637 211.948 602.691 211.892 602.73 211.852C602.749 211.832 602.764 211.816 602.775 211.804C602.781 211.798 602.785 211.793 602.789 211.79C602.791 211.788 602.792 211.786 602.793 211.785C602.794 211.784 602.795 211.784 602.795 211.783C602.795 211.783 602.796 211.782 602.796 211.782C602.796 211.782 602.796 211.782 600.258 209.364C597.719 206.947 597.719 206.947 597.719 206.947C597.719 206.947 597.72 206.946 597.72 206.946C597.72 206.946 597.72 206.946 597.72 206.946C597.721 206.945 597.721 206.945 597.72 206.946C597.72 206.946 597.718 206.947 597.716 206.95C597.711 206.955 597.702 206.964 597.689 206.978C597.664 207.004 597.622 207.047 597.565 207.105C597.451 207.222 597.275 207.4 597.037 207.635C596.562 208.105 595.843 208.799 594.891 209.672C592.988 211.42 590.158 213.881 586.494 216.695L590.759 222.262Z" fill="black"/>
<path d="M634.835 185.678L611.732 239.287L572.678 194.181L634.835 185.678Z" fill="black"/>
</g>
<defs>
<filter id="filter0_d_606_9" x="0.503479" y="89.2365" width="634.332" height="190.559" filterUnits="userSpaceOnUse" color-interpolation-filters="sRGB">
<feFlood flood-opacity="0" result="BackgroundImageFix"/>
<feColorMatrix in="SourceAlpha" type="matrix" values="0 0 0 0 0 0 0 0 0 0 0 0 0 0 0 0 0 0 127 0" result="hardAlpha"/>
<feOffset dx="-17" dy="7"/>
<feGaussianBlur stdDeviation="4"/>
<feComposite in2="hardAlpha" operator="out"/>
<feColorMatrix type="matrix" values="0 0 0 0 0 0 0 0 0 0 0 0 0 0 0 0 0 0 0.29 0"/>
<feBlend mode="normal" in2="BackgroundImageFix" result="effect1_dropShadow_606_9"/>
<feBlend mode="normal" in="SourceGraphic" in2="effect1_dropShadow_606_9" result="shape"/>
</filter>
</defs>
</svg>
