<?xml version="1.0" standalone="no"?>
<!DOCTYPE svg PUBLIC "-//W3C//DTD SVG 20010904//EN"
 "http://www.w3.org/TR/2001/REC-SVG-20010904/DTD/svg10.dtd">
<svg version="1.0" xmlns="http://www.w3.org/2000/svg"
 width="484.000000pt" height="484.000000pt" viewBox="0 0 484.000000 484.000000"
 preserveAspectRatio="xMidYMid meet">
<metadata>
Created by potrace 1.14, written by Peter Selinger 2001-2017
</metadata>
<g transform="translate(0.000000,484.000000) scale(0.100000,-0.100000)"
fill="#000000" stroke="none">
<path d="M2095 4540 c-153 -27 -338 -78 -420 -115 -16 -7 -57 -25 -91 -38
-275 -115 -597 -377 -791 -644 -27 -38 -55 -78 -62 -91 l-12 -22 878 -1 c483
-1 894 -2 913 -4 19 -1 73 -10 120 -20 618 -128 991 -762 805 -1370 -47 -154
-129 -292 -250 -423 l-77 -82 92 -117 c50 -65 102 -131 115 -148 12 -16 94
-122 180 -235 86 -113 163 -211 171 -219 12 -13 19 -10 55 19 51 41 179 174
247 256 150 183 305 470 363 674 7 25 14 50 15 55 8 25 26 102 30 125 3 14 7
32 9 40 3 8 7 35 10 60 3 25 9 72 14 105 9 60 7 402 -2 441 -3 12 -8 45 -12
75 -9 79 -61 281 -97 379 -66 183 -170 375 -285 527 -72 96 -229 261 -317 332
-81 66 -244 180 -296 206 -166 84 -217 107 -302 139 -118 44 -225 71 -378 96
-159 25 -483 26 -625 0z"/>
<path d="M253 2982 c2 -4 37 -63 78 -132 l74 -125 1 -170 c1 -93 4 -186 7
-205 3 -19 9 -62 12 -95 4 -33 9 -63 11 -66 2 -3 6 -21 9 -40 12 -73 59 -229
97 -329 168 -431 501 -809 909 -1033 77 -43 274 -127 339 -146 25 -7 56 -17
70 -21 14 -5 39 -11 55 -15 17 -4 39 -9 50 -12 138 -32 254 -45 425 -46 223 0
312 9 490 51 l75 17 125 -53 c172 -74 173 -74 164 -59 -10 16 -147 195 -472
617 l-274 355 -391 5 -392 5 0 185 c-1 202 8 258 50 322 31 47 101 98 157 115
26 7 126 12 285 13 258 1 316 7 399 47 120 56 220 197 238 335 22 162 -77 352
-226 433 -102 56 -72 54 -1266 55 -607 0 -1101 -4 -1099 -8z"/>
</g>
</svg>
